<svg width="30" height="30" viewBox="0 0 30 30" fill="none" xmlns="http://www.w3.org/2000/svg">
<path d="M19.4615 22.2222C19.7854 22.9135 20.733 23.1519 20.769 24.0697C16.9065 24.0697 13.0919 24.0697 9.22934 24.0697C9.28932 23.1638 10.213 22.9135 10.5608 22.2341C10.249 22.1626 9.96106 22.1149 9.68517 22.0315C8.31768 21.6143 7.34605 20.3508 7.34605 18.9086C7.32206 15.8333 7.32206 12.7819 7.33405 9.71859C7.33405 8.30017 7.9938 7.22741 9.3253 6.76255C10.4049 6.39304 11.5565 6.16657 12.696 6.05929C14.9272 5.85666 17.1704 5.85666 19.3775 6.32152C19.9413 6.44072 20.4931 6.64335 20.9969 6.89366C22.0765 7.43004 22.6403 8.34784 22.6523 9.52788C22.6763 12.6866 22.6883 15.8452 22.6523 19.0039C22.6403 20.4581 21.5607 21.6977 20.1452 22.0553C19.9293 22.1268 19.7014 22.1626 19.4615 22.2222ZM14.0155 9.82587C12.4081 9.82587 10.8367 9.82587 9.28932 9.82587C9.28932 11.4231 9.28932 12.9726 9.28932 14.5222C10.8847 14.5222 12.4321 14.5222 14.0155 14.5222C14.0155 12.9488 14.0155 11.4112 14.0155 9.82587ZM20.733 9.82587C19.1256 9.82587 17.5542 9.82587 16.0068 9.82587C16.0068 11.4231 16.0068 12.9726 16.0068 14.5222C17.6022 14.5222 19.1496 14.5222 20.733 14.5222C20.733 12.9488 20.733 11.4112 20.733 9.82587ZM12.1203 18.8609C12.1322 18.0742 11.4725 17.4186 10.6808 17.4186C9.91308 17.4186 9.26533 18.0384 9.24133 18.8013C9.21734 19.588 9.8531 20.2555 10.6448 20.2793C11.4485 20.2912 12.1083 19.6476 12.1203 18.8609ZM20.757 18.837C20.757 18.0503 20.0853 17.4067 19.2936 17.4186C18.5258 17.4305 17.8901 18.0623 17.8781 18.8251C17.8661 19.6118 18.5139 20.2674 19.3056 20.2793C20.1093 20.2793 20.757 19.6237 20.757 18.837Z" fill="#FFA800"/>
<circle cx="15" cy="15" r="14" stroke="#FFA800" stroke-width="2"/>
</svg>
